<svg width="25" height="25" viewBox="0 0 25 25" fill="none" xmlns="http://www.w3.org/2000/svg">
<path d="M24.5225 12.7837C24.5225 11.9315 24.4527 11.0824 24.307 10.2421H12.5081V15.0553H19.2652C18.9858 16.6081 18.0842 17.9818 16.767 18.8523V21.9793H20.801C23.1626 19.8077 24.5225 16.5898 24.5225 12.7837Z" fill="#4285F4"/>
<path d="M12.5082 25C15.8838 25 18.7281 23.893 20.8011 21.9823L16.7671 18.8554C15.644 19.6167 14.1991 20.0504 12.5082 20.0504C9.24523 20.0504 6.47681 17.8517 5.48427 14.8915H1.33185V18.1123C3.45657 22.3372 7.77911 25 12.5082 25Z" fill="#34A853"/>
<path d="M5.48729 14.8915C4.96225 13.3418 4.96225 11.6585 5.48729 10.1059V6.888H1.33192C-0.443973 10.4211 -0.443973 14.5821 1.33192 18.1154L5.48729 14.8915Z" fill="#FBBC04"/>
<path d="M12.5082 4.95014C14.2932 4.92283 16.0142 5.5932 17.3073 6.82452L20.8801 3.25783C18.6157 1.13499 15.6167 -0.0326956 12.5082 0.000696948C7.77911 0.000696948 3.45363 2.66643 1.33185 6.88816L5.48721 10.109C6.47681 7.14585 9.24523 4.95014 12.5082 4.95014Z" fill="#EA4335"/>
</svg>
